<svg xmlns="http://www.w3.org/2000/svg" xmlns:xlink="http://www.w3.org/1999/xlink" viewBox="0 0 1024 620">
  <defs>
    <style>
      .cls-1 {
        isolation: isolate;
      }

      .cls-2 {
        fill: none;
      }

      .cls-3, .cls-4 {
        fill: #6a1613;
      }

      .cls-3, .cls-33 {
        opacity: 0.1;
      }

      .cls-4 {
        opacity: 0.2;
      }

      .cls-5 {
        fill: #e2eafb;
      }

      .cls-6 {
        fill: #cbdcf9;
      }

      .cls-7 {
        fill: #f9faff;
      }

      .cls-8 {
        fill: #80a6f5;
      }

      .cls-9 {
        fill: #9ebbfa;
      }

      .cls-10 {
        fill: #b7cff8;
      }

      .cls-11, .cls-27, .cls-32 {
        fill: #207bff;
      }

      .cls-11 {
        opacity: 0.4;
      }

      .cls-12 {
        fill: #004bff;
        opacity: 0.5;
        mix-blend-mode: multiply;
      }

      .cls-13 {
        fill: #c4d7f9;
      }

      .cls-14 {
        fill: url(#_ÂÁ_Ï_ÌÌ_È_ËÂÌÚ_30);
      }

      .cls-15 {
        fill: #4aeaff;
      }

      .cls-16, .cls-31 {
        fill: #fff;
      }

      .cls-17 {
        fill: #bdf8ff;
      }

      .cls-18 {
        fill: url(#linear-gradient);
      }

      .cls-19 {
        fill: #eb1c24;
      }

      .cls-20 {
        fill: url(#linear-gradient-2);
      }

      .cls-21 {
        fill: url(#linear-gradient-3);
      }

      .cls-22 {
        fill: url(#linear-gradient-4);
      }

      .cls-23 {
        fill: url(#linear-gradient-5);
      }

      .cls-24 {
        fill: url(#linear-gradient-6);
      }

      .cls-25 {
        fill: url(#linear-gradient-7);
      }

      .cls-26 {
        fill: #92b3fa;
      }

      .cls-28 {
        fill: url(#_ÂÁ_Ï_ÌÌ_È_ËÂÌÚ_14);
      }

      .cls-29 {
        fill: url(#_ÂÁ_Ï_ÌÌ_È_ËÂÌÚ_18);
      }

      .cls-30 {
        fill: #4880f7;
      }

      .cls-31 {
        opacity: 0.8;
      }

      .cls-32 {
        opacity: 0.72;
      }

      .cls-33, .cls-34, .cls-35, .cls-36 {
        fill: #3ae5fa;
      }

      .cls-34 {
        opacity: 0.3;
      }

      .cls-36 {
        opacity: 0.7;
      }
    </style>
    <radialGradient id="_ÂÁ_Ï_ÌÌ_È_ËÂÌÚ_30" data-name="¡ÂÁ˚ÏˇÌÌ˚È „‡‰ËÂÌÚ 30" cx="2984.5" cy="482.45" r="5.5" gradientTransform="translate(-2863.05)" gradientUnits="userSpaceOnUse">
      <stop offset="0" stop-color="#4aeaff"/>
      <stop offset="1" stop-color="#00709d"/>
    </radialGradient>
    <linearGradient id="linear-gradient" x1="1602.47" y1="386.39" x2="1602.47" y2="416.72" gradientTransform="matrix(-1, 0, 0, 1, 1727.34, 0)" gradientUnits="userSpaceOnUse">
      <stop offset="0.02" stop-color="#dc2a21"/>
      <stop offset="0.06" stop-color="#c7201b"/>
      <stop offset="0.1" stop-color="#b61717"/>
      <stop offset="0.15" stop-color="#ab1113"/>
      <stop offset="0.22" stop-color="#a40e12"/>
      <stop offset="0.43" stop-color="#a20d11"/>
      <stop offset="0.79" stop-color="#6b0006"/>
    </linearGradient>
    <linearGradient id="linear-gradient-2" x1="1593.66" y1="387.75" x2="1593.66" y2="409.51" gradientTransform="matrix(-1, 0, 0, 1, 1727.34, 0)" gradientUnits="userSpaceOnUse">
      <stop offset="0" stop-color="#ac1a27"/>
      <stop offset="0.08" stop-color="#9e151f"/>
      <stop offset="0.28" stop-color="#7d0a0e"/>
      <stop offset="0.44" stop-color="#680304"/>
      <stop offset="0.56" stop-color="#610000"/>
      <stop offset="0.73" stop-color="#520000"/>
      <stop offset="1" stop-color="#3f0000"/>
    </linearGradient>
    <linearGradient id="linear-gradient-3" x1="-634.13" y1="398.95" x2="-620.01" y2="398.95" gradientTransform="translate(734.8)" gradientUnits="userSpaceOnUse">
      <stop offset="0" stop-color="#bd1349"/>
      <stop offset="0.24" stop-color="#bd124e"/>
      <stop offset="0.25" stop-color="#bd124e"/>
      <stop offset="1" stop-color="#7a0025"/>
    </linearGradient>
    <linearGradient id="linear-gradient-4" x1="-638.78" y1="406.18" x2="-619.94" y2="406.18" gradientTransform="translate(734.8)" gradientUnits="userSpaceOnUse">
      <stop offset="0" stop-color="#282880"/>
      <stop offset="0.27" stop-color="#26257c"/>
      <stop offset="0.56" stop-color="#1f1b6f"/>
      <stop offset="0.85" stop-color="#140b5a"/>
      <stop offset="1" stop-color="#0d004c"/>
    </linearGradient>
    <linearGradient id="linear-gradient-5" x1="-634.32" y1="406.18" x2="-620.01" y2="406.18" xlink:href="#linear-gradient-3"/>
    <linearGradient id="linear-gradient-6" x1="-631.42" y1="398.89" x2="-613.43" y2="398.89" xlink:href="#linear-gradient-4"/>
    <linearGradient id="linear-gradient-7" x1="1607.39" y1="405.46" x2="1607.39" y2="395.16" gradientTransform="matrix(-1, 0, 0, 1, 1727.34, 0)" gradientUnits="userSpaceOnUse">
      <stop offset="0" stop-color="#ec2d24"/>
      <stop offset="0.12" stop-color="#ec2824"/>
      <stop offset="0.25" stop-color="#eb1c24"/>
      <stop offset="1" stop-color="#74020d"/>
    </linearGradient>
    <linearGradient id="_ÂÁ_Ï_ÌÌ_È_ËÂÌÚ_14" data-name="¡ÂÁ˚ÏˇÌÌ˚È „‡‰ËÂÌÚ 14" x1="2939.12" y1="460.35" x2="3000.32" y2="460.35" gradientTransform="translate(-2873.6 14.89) rotate(-2.88)" gradientUnits="userSpaceOnUse">
      <stop offset="0" stop-color="#003a6b"/>
      <stop offset="1" stop-color="#00204c"/>
    </linearGradient>
    <linearGradient id="_ÂÁ_Ï_ÌÌ_È_ËÂÌÚ_18" data-name="¡ÂÁ˚ÏˇÌÌ˚È „‡‰ËÂÌÚ 18" x1="2964.9" y1="299.73" x2="2995.91" y2="351.98" gradientTransform="translate(-2863.05)" gradientUnits="userSpaceOnUse">
      <stop offset="0" stop-color="#cad6e0"/>
      <stop offset="0.05" stop-color="#aec0d0"/>
      <stop offset="0.15" stop-color="#7998b1"/>
      <stop offset="0.25" stop-color="#4e7698"/>
      <stop offset="0.35" stop-color="#2c5c84"/>
      <stop offset="0.44" stop-color="#144976"/>
      <stop offset="0.53" stop-color="#053e6e"/>
      <stop offset="0.6" stop-color="#003a6b"/>
      <stop offset="1" stop-color="#00204c"/>
    </linearGradient>
  </defs>
  <title>robot2</title>
  <g class="cls-1">
    <g id="robot_bien" data-name="robot bien">
      <g id="fondo">
        <rect class="cls-2" width="1024" height="620"/>
      </g>
      <g id="sombra">
        <ellipse class="cls-3" cx="111.29" cy="519.35" rx="44.11" ry="9.9"/>
        <ellipse class="cls-4" cx="111.29" cy="519.35" rx="34.36" ry="6.3"/>
        <ellipse class="cls-4" cx="111.29" cy="519.35" rx="20.69" ry="3.79"/>
      </g>
      <g id="brazoIzquierdo">
        <g>
          <path class="cls-5" d="M180.7,417.41c-9-31.74-25.32-42.42-25.32-42.42s-7-1.31-13.64,8.56a15.68,15.68,0,0,0-2,13.49s27.87,29.48,35,39.11S184.09,429.33,180.7,417.41Z"/>
          <path class="cls-5" d="M180.7,417.41c-9-31.74-25.32-42.42-25.32-42.42s-7-1.31-13.64,8.56a15.68,15.68,0,0,0-2,13.49s27.87,29.48,35,39.11S184.09,429.33,180.7,417.41Z"/>
          <path class="cls-6" d="M178.69,422.54c-6.33-18.75-12.08-27.7-17.74-32.67-9.72-8.52-17-7-21.61-.54a15.47,15.47,0,0,1,2.4-5.78c6.64-9.87,13.64-8.56,13.64-8.56s16.28,10.68,25.32,42.42c2.34,8.24,2,18.64-.83,21.1C180.07,437.62,182.46,433.7,178.69,422.54Z"/>
          <path class="cls-5" d="M162.94,421.61c1.57,2,2.46,6.05,2.35,8a17.37,17.37,0,0,1-1.34,4.78,3.33,3.33,0,0,0,3.39-.78c1.69-1.51,2.17-4.12,2.51-5.27S162.94,421.61,162.94,421.61Z"/>
          <path class="cls-7" d="M160.94,398.08a103.42,103.42,0,0,0-8.24-8.38c-1.45-1.25,0-2.53,1.3-1.66,2.88,1.88,7.09,6.38,12.33,12.88,3.07,3.81,11.31,19.14,12.21,29.24C178.26,429.71,174.06,412.81,160.94,398.08Z"/>
          <path class="cls-8" d="M180.31,414.14h0a.4.4,0,0,0-.52.11c-3.65,5.39-11.24,9.43-18.14,6.3a.4.4,0,0,0-.5.16.32.32,0,0,0,.17.46c7.29,3.31,15.29-.91,19.12-6.56A.32.32,0,0,0,180.31,414.14Z"/>
        </g>
        <path class="cls-9" d="M156.05,386.37c.56-8.72-2.32-16-6.45-16.19s-7.92,6.67-8.48,15.39,2.32,16,6.44,16.19S155.48,395.09,156.05,386.37Z"/>
      </g>
      <g id="torso">
        <path class="cls-5" d="M66.81,364c-4.27-.27-19.33,14.84-14.8,29.5S82.22,457,88,474.17s9.3,21.34,17.56,22.9,20.76,2.12,35.24-28.12,16.71-64.2,17.37-80.33-1-22.54-6.67-24.38C138.38,360,66.81,364,66.81,364Z"/>
        <path class="cls-7" d="M135,465.39c11.23-31.81,9.88-66,8.84-82.2-.7-10.77-2-17.13-4.45-20.54-12-.67-29.43-.38-44.24.1,7.92,20.88,19.62,56.05,21.57,92.28,1.3,24.17-2,36-6.66,42C117.59,495.56,126.64,489.06,135,465.39Z"/>
        <path class="cls-10" d="M152.79,365.58c0,3.14-22.15,8-44.5,8s-44.51-4.76-44.52-7.89,22.16-3.42,44.5-3.46S152.78,362.45,152.79,365.58Z"/>
        <path class="cls-11" d="M139.28,366.22c0,2.17-15.26,5.54-30.65,5.56S78,368.49,78,366.32s15.26-2.36,30.65-2.39S139.27,364.06,139.28,366.22Z"/>
        <path class="cls-12" d="M129.91,367.35c0,.83-10.52,1.88-20.78,1.9s-20.07-1-20.07-1.83,9.81-1.16,20.07-1.18S129.91,366.52,129.91,367.35Z"/>
        <path class="cls-13" d="M97.22,477.71c-2.37-12.82-5.91-54.74-14.34-84.33-4.22-14.83-14.16-25.29-23.79-22-6.83,2.36-9.53,14.13-7.08,22.06,4.54,14.66,30.21,63.58,36,80.71s9.3,21.34,17.56,22.9c4.26.8,9.64,1.33,15.83-2.47C113,495.92,101.16,498.94,97.22,477.71Z"/>
        <path class="cls-14" d="M126.8,484a15.13,15.13,0,0,1-5.09.84,23.63,23.63,0,0,1-5.7-.41,2.28,2.28,0,0,1-2-2.12h0a2.06,2.06,0,0,1,2-2.11s4.38.49,5.45.48a39.89,39.89,0,0,0,5.53-.52c1.1,0,2.13.32,1.8,1.89A2.74,2.74,0,0,1,126.8,484Z"/>
        <path class="cls-15" d="M126.1,483.72a15.8,15.8,0,0,1-4.4.6,24.9,24.9,0,0,1-4.92-.3c-.92-.19-1.73-.68-1.72-1.51h0a1.63,1.63,0,0,1,1.72-1.51s3.79.35,4.71.35a41.37,41.37,0,0,0,4.78-.37c1,0,1.84.23,1.55,1.35C127.69,482.85,127.25,483.36,126.1,483.72Z"/>
        <path class="cls-8" d="M120.48,474.28c-10.07,0-22.41-2.18-35.73-7.65A.36.36,0,0,1,85,466c24.81,10.2,46.16,8.9,55.49,3.38a.36.36,0,0,1,.37.62C136.44,472.59,129.34,474.28,120.48,474.28Z"/>
        <path class="cls-16" d="M120.22,473.49c-10.07,0-22.41-2.18-35.73-7.66a.35.35,0,0,1-.19-.46.35.35,0,0,1,.46-.2c24.81,10.2,46.16,8.91,55.49,3.39a.36.36,0,1,1,.37.61C136.18,471.8,129.08,473.49,120.22,473.49Z"/>
        <path class="cls-7" d="M156.33,372.23c1.9,38.77-3.69,57.12-3.69,57.12s5.34-29.29.41-57.61C152.38,367.86,156,366.18,156.33,372.23Z"/>
        <path class="cls-16" d="M67.19,369.53s4.41,2.65,20.54,4.15,37.36,1.21,37.36,1.21-19.57,2.59-37.44.67S67.19,369.53,67.19,369.53Z"/>
        <path class="cls-17" d="M124.07,481.22c-.78.06-1.69.12-2.58.13s-4.71-.35-4.71-.35a2.2,2.2,0,0,0-.36,0l1.74,3.17c1,.09,2.13.12,3.54.11a16.64,16.64,0,0,0,4.1-.52Z"/>
        <g>
          <path class="cls-18" d="M135.15,398.8a13.7,13.7,0,0,0-8.54-12.69,12.37,12.37,0,0,0-1.52.2,12.61,12.61,0,0,0-10.49,12c0,.13,0,.27,0,.41v.14h0a7.81,7.81,0,0,1,7.81-7.8,7.73,7.73,0,0,1,2.56.43c-.78-.28-.75-.28,0,0a7.51,7.51,0,0,1,10.09,7.28v.07a7.35,7.35,0,0,1-7.38,7.66,7.56,7.56,0,0,1-2.41-.38,7.72,7.72,0,0,1-2.9.55,7.81,7.81,0,0,1-7.81-7.68A12.48,12.48,0,0,0,125,411.29c.52.09,1.06.16,1.6.2A13.7,13.7,0,0,0,135.15,398.8Z"/>
          <path class="cls-19" d="M130.22,398.89a7.82,7.82,0,0,1-4.92,7.26,7.56,7.56,0,0,0,2.41.38,7.35,7.35,0,0,0,7.38-7.66v-.07A7.51,7.51,0,0,0,125,391.52c-.79-.29-.82-.29,0,0A7.8,7.8,0,0,1,130.22,398.89Z"/>
          <path class="cls-20" d="M127.71,386.07c-.37,0-.74,0-1.1,0a13.7,13.7,0,0,1,0,25.38c.34,0,.69,0,1,0a12.73,12.73,0,0,0,13.12-12.73v-.07C140.76,391.73,135.3,386.07,127.71,386.07Z"/>
          <path class="cls-21" d="M114.59,398.89v0Z"/>
          <path class="cls-22" d="M125.09,406.07Z"/>
          <path class="cls-23" d="M125.09,406.07Z"/>
          <path class="cls-24" d="M122.4,406.7a7.72,7.72,0,0,0,2.9-.55l-.21-.08h0a7.61,7.61,0,0,1-5-7.27v-.07a7.5,7.5,0,0,1,4.94-7.21h0a7.73,7.73,0,0,0-2.56-.43,7.81,7.81,0,0,0-7.81,7.8V399A7.81,7.81,0,0,0,122.4,406.7Z"/>
          <path class="cls-25" d="M122.4,406.7a7.72,7.72,0,0,0,2.9-.55l-.21-.08h0a7.61,7.61,0,0,1-5-7.27v-.07a7.5,7.5,0,0,1,4.94-7.21h0a7.73,7.73,0,0,0-2.56-.43,7.81,7.81,0,0,0-7.81,7.8V399A7.81,7.81,0,0,0,122.4,406.7Z"/>
        </g>
      </g>
      <g id="brazoDerecho">
        <path class="cls-26" d="M74.8,390.79c-.7-10.71-6.35-19-12.63-18.41S51.38,382,52.07,392.75s6.35,18.94,12.63,18.4S75.49,401.49,74.8,390.79Z"/>
        <path class="cls-27" d="M60.38,374.88c-4.67,1.74-8.26,9-8.35,17.62-.11,9.85,4.38,17.8,10,17.71s10.29-8.16,10.4-18-4.38-17.79-10-17.71A6.26,6.26,0,0,0,60.38,374.88Zm3.51,34.29a5.62,5.62,0,0,1-1.85.35c-5.23.08-9.41-7.56-9.3-17s4.45-17.23,9.68-17.31,9.4,7.56,9.3,17C71.62,400.54,68.26,407.55,63.89,409.17Z"/>
        <g>
          <path class="cls-5" d="M42.38,429.2c-4-29.88,5.47-41.58,10.49-47,1.47-1.59,6.88-6.58,11.74-3.72,5.72,3.36,5.61,15.37,5.17,17.42-1.72,8-12,38.08-14.38,49.07C52.83,456.93,44.09,442,42.38,429.2Z"/>
          <path class="cls-6" d="M69.78,395.91c-.29,1.35-.83,3.35-1.54,5.77-2.11,7-6,19.07-9,29.25-1.7,5.67-3.14,10.73-3.86,14.05a4.37,4.37,0,0,1-.12.52c-.29-14,8.62-39.45,10.43-52.11.5-3.47,2.19-11-4.15-15.76a6,6,0,0,1,3,.86C70.33,381.85,70.22,393.86,69.78,395.91Z"/>
          <path class="cls-7" d="M48.78,390.41c-10.14,14.31-2,49.09-2,49.09s.62-26.21,3.95-38.26S52.24,385.53,48.78,390.41Z"/>
          <path class="cls-6" d="M56.84,438.39a36.23,36.23,0,0,0,1.59,4.87,8.76,8.76,0,0,0,3.14,1.51c-.56-2.07-2.48-13.22-1.43-16.61C60.51,427,56.21,436.43,56.84,438.39Z"/>
          <path class="cls-8" d="M60.5,428.41a.39.39,0,0,1-.33-.09c-4.48-4.38-12.22-6.61-17.77-2.13a.37.37,0,0,1-.5,0,.35.35,0,0,1,.05-.49c5.88-4.74,14-2.42,18.73,2.17a.34.34,0,0,1,0,.48A.42.42,0,0,1,60.5,428.41Z"/>
        </g>
      </g>
      <g id="cabeza">
        <g>
          <path class="cls-5" d="M70.21,352c10.16,13.1,41.29,10.6,50,9.77s23.37-2.34,28.66-18.3,2.65-40.32-11.9-53S83.43,279.93,70.21,297,66.68,347.5,70.21,352Z"/>
          <path class="cls-16" d="M72.89,300.47c.58-.2,12.6-9.55,34.37-11.41,7.49-.64,19.17,0,26.66,1-.74-.79-11.51-7-33.71-4.7A43.87,43.87,0,0,0,72.89,300.47Z"/>
          <path class="cls-7" d="M112.46,296.61c-7,.11-14,.61-20.63,3.11l-.15.07c6.86,14.52,7.42,33.44,3.4,47a28.65,28.65,0,0,1-5.83,11c12.11,2.13,25.66,1,30.92.52,5.74-.55,14.11-1.4,20.65-6.53a32.88,32.88,0,0,0,1.9-5c4.07-13.7,3.44-32.94-3.68-47.53A113,113,0,0,0,112.46,296.61Z"/>
          <path class="cls-28" d="M87.13,309.5c4-5.49,15.05-6.93,28.84-7.75,17.8-1.06,23.82,2.16,25.64,4.22s5,12.28,4.29,22.21-.79,12.92-4.87,15.39-15.89,4.89-23.52,5.08c-14.45.35-21.74-.36-26.57-3.19-2.47-1.46-5.61-9.27-6.1-18.91S85,312.35,87.13,309.5Z"/>
          <path class="cls-29" d="M115.47,303.28c-8.57.5-16,1.24-21.25,3.09,4.58,12.72,4.61,27.81,1.21,39,0,.13-.09.25-.13.37,4.58,1.33,11.14,1.64,21.65,1.39,7.31-.17,18.64-2.43,22.56-4.74a7,7,0,0,0,3.07-3.2,66.48,66.48,0,0,0-2.26-31.61,3.52,3.52,0,0,0-.25-.33C138.32,305.3,132.55,302.29,115.47,303.28Z"/>
          <path class="cls-9" d="M77.77,318.63c-.24,5.4-3.25,9.65-6.73,9.49s-6.11-4.65-5.87-10.05,3.26-9.65,6.74-9.49S78,313.23,77.77,318.63Z"/>
          <path class="cls-30" d="M75,318.23c-.16,3.78-2,6.78-4.12,6.68s-3.68-3.24-3.51-7,2-6.79,4.12-6.69S75.18,314.44,75,318.23Z"/>
          <path class="cls-27" d="M75.07,318.51l-.35,0,.35,0a13.28,13.28,0,0,0-1.58-7.19,5.8,5.8,0,0,0-4.62-3.23c-3.66-.16-6.86,4.24-7.11,9.83S64.3,328.18,68,328.34h.19C71.75,328.35,74.83,324,75.07,318.51Zm-6.23-9.71a5.11,5.11,0,0,1,4,2.88,12.62,12.62,0,0,1,1.49,6.8c-.23,5.19-3.09,9.28-6.36,9.15s-5.76-4.49-5.52-9.68,3-9.15,6.19-9.15Z"/>
          <path class="cls-7" d="M68.4,331.14l2.55.09s1.09,10.6,4.14,16.83,7.41,8.22,7.41,8.22S76,354.17,72,346.09C69.22,340.27,68.4,331.14,68.4,331.14Z"/>
          <path class="cls-31" d="M89.53,310.31v0a1.36,1.36,0,0,0,2,.46c1.24-.85,3.13-2.12,4.22-2.71,1.72-.94,10.22-4.08,10.22-4.08a39.1,39.1,0,0,0-15.75,4.11A1.61,1.61,0,0,0,89.53,310.31Z"/>
        </g>
        <path class="cls-32" d="M82.85,317.39c0,1.67-.78,3-1.74,3s-1.74-1.36-1.74-3,.78-3,1.74-3S82.85,315.71,82.85,317.39Z"/>
      </g>
      <g id="ojos">
        <rect class="cls-33" x="123.06" y="313.27" width="12.28" height="16.04" rx="3.93"/>
        <rect class="cls-33" x="124.35" y="315" width="9.7" height="12.59" rx="3.93"/>
        <rect class="cls-34" x="125.98" y="316.61" width="6.73" height="9.8" rx="2.44"/>
        <path class="cls-35" d="M132,320.39h-5.53a.27.27,0,1,1,0-.53H132a.27.27,0,1,1,0,.53Z"/>
        <path class="cls-35" d="M132,321.56h-5.53a.27.27,0,0,1-.27-.27.26.26,0,0,1,.27-.26H132a.26.26,0,0,1,.27.26A.27.27,0,0,1,132,321.56Z"/>
        <path class="cls-35" d="M132,322.77h-5.53a.27.27,0,1,1,0-.53H132a.27.27,0,1,1,0,.53Z"/>
        <path class="cls-35" d="M131.29,318.15h-4.11a.27.27,0,1,1,0-.53h4.11a.27.27,0,1,1,0,.53Z"/>
        <path class="cls-35" d="M132,319.36h-5.53a.27.27,0,1,1,0-.53H132a.27.27,0,1,1,0,.53Z"/>
        <path class="cls-35" d="M132,324.21h-5.53a.27.27,0,1,1,0-.53H132a.27.27,0,1,1,0,.53Z"/>
        <path class="cls-35" d="M132,325.38h-5.53a.27.27,0,0,1,0-.54H132a.27.27,0,0,1,0,.54Z"/>
        <g>
          <rect class="cls-33" x="103.5" y="313.27" width="12.28" height="16.04" rx="3.93"/>
          <rect class="cls-33" x="104.79" y="315" width="9.7" height="12.59" rx="3.93"/>
          <rect class="cls-34" x="106.42" y="316.61" width="6.73" height="9.8" rx="2.44"/>
          <path class="cls-35" d="M112.44,320.39h-5.53a.27.27,0,1,1,0-.53h5.53a.27.27,0,0,1,0,.53Z"/>
          <path class="cls-35" d="M112.44,321.56h-5.53a.27.27,0,0,1-.27-.27.26.26,0,0,1,.27-.26h5.53a.25.25,0,0,1,.26.26A.26.26,0,0,1,112.44,321.56Z"/>
          <path class="cls-35" d="M112.44,322.77h-5.53a.27.27,0,1,1,0-.53h5.53a.27.27,0,0,1,0,.53Z"/>
          <path class="cls-35" d="M111.73,318.15h-4.12a.27.27,0,0,1,0-.53h4.12a.27.27,0,1,1,0,.53Z"/>
          <path class="cls-35" d="M112.44,319.36h-5.53a.27.27,0,1,1,0-.53h5.53a.27.27,0,0,1,0,.53Z"/>
          <path class="cls-35" d="M112.44,324.21h-5.53a.27.27,0,1,1,0-.53h5.53a.27.27,0,0,1,0,.53Z"/>
          <path class="cls-35" d="M112.44,325.38h-5.53a.27.27,0,0,1,0-.54h5.53a.27.27,0,0,1,0,.54Z"/>
        </g>
      </g>
      <path id="boca" class="cls-36" d="M112.2,337.54c5.54.7,15.47,1.25,15.47,1.25s-8.79.89-14.52-.09S106.24,336.78,112.2,337.54Z"/>
    </g>
  </g>
</svg>
