<svg xmlns="http://www.w3.org/2000/svg" xmlns:xlink="http://www.w3.org/1999/xlink" viewBox="0 0 1024 620">
  <defs>
    <style>
      .cls-1 {
        isolation: isolate;
      }

      .cls-2 {
        fill: none;
      }

      .cls-3, .cls-4 {
        fill: #2e3191;
      }

      .cls-3, .cls-33 {
        opacity: 0.1;
      }

      .cls-4 {
        opacity: 0.2;
      }

      .cls-5 {
        fill: #e2eafb;
      }

      .cls-6 {
        fill: #cbdcf9;
      }

      .cls-7 {
        fill: #f9faff;
      }

      .cls-8 {
        fill: #80a6f5;
      }

      .cls-9 {
        fill: #9ebbfa;
      }

      .cls-10 {
        fill: #b7cff8;
      }

      .cls-11, .cls-27, .cls-32 {
        fill: #207bff;
      }

      .cls-11 {
        opacity: 0.4;
      }

      .cls-12 {
        fill: #004bff;
        opacity: 0.5;
        mix-blend-mode: multiply;
      }

      .cls-13 {
        fill: #c4d7f9;
      }

      .cls-14 {
        fill: url(#_ÂÁ_Ï_ÌÌ_È_ËÂÌÚ_30);
      }

      .cls-15 {
        fill: #4aeaff;
      }

      .cls-16, .cls-31 {
        fill: #fff;
      }

      .cls-17 {
        fill: #bdf8ff;
      }

      .cls-18 {
        fill: url(#linear-gradient);
      }

      .cls-19 {
        fill: #eb1c24;
      }

      .cls-20 {
        fill: url(#linear-gradient-2);
      }

      .cls-21 {
        fill: url(#linear-gradient-3);
      }

      .cls-22 {
        fill: url(#linear-gradient-4);
      }

      .cls-23 {
        fill: url(#linear-gradient-5);
      }

      .cls-24 {
        fill: url(#linear-gradient-6);
      }

      .cls-25 {
        fill: url(#linear-gradient-7);
      }

      .cls-26 {
        fill: #92b3fa;
      }

      .cls-28 {
        fill: url(#_ÂÁ_Ï_ÌÌ_È_ËÂÌÚ_14);
      }

      .cls-29 {
        fill: url(#_ÂÁ_Ï_ÌÌ_È_ËÂÌÚ_18);
      }

      .cls-30 {
        fill: #4880f7;
      }

      .cls-31 {
        opacity: 0.8;
      }

      .cls-32 {
        opacity: 0.72;
      }

      .cls-33, .cls-34, .cls-35, .cls-36 {
        fill: #3ae5fa;
      }

      .cls-34 {
        opacity: 0.3;
      }

      .cls-36 {
        opacity: 0.7;
      }
    </style>
    <radialGradient id="_ÂÁ_Ï_ÌÌ_È_ËÂÌÚ_30" data-name="¡ÂÁ˚ÏˇÌÌ˚È „‡‰ËÂÌÚ 30" cx="2957.28" cy="458.5" r="5.04" gradientTransform="translate(-2863.05)" gradientUnits="userSpaceOnUse">
      <stop offset="0" stop-color="#4aeaff"/>
      <stop offset="1" stop-color="#00709d"/>
    </radialGradient>
    <linearGradient id="linear-gradient" x1="1629.96" y1="370.45" x2="1629.96" y2="398.25" gradientTransform="matrix(-1, 0, 0, 1, 1727.34, 0)" gradientUnits="userSpaceOnUse">
      <stop offset="0.02" stop-color="#dc2a21"/>
      <stop offset="0.06" stop-color="#c7201b"/>
      <stop offset="0.1" stop-color="#b61717"/>
      <stop offset="0.15" stop-color="#ab1113"/>
      <stop offset="0.22" stop-color="#a40e12"/>
      <stop offset="0.43" stop-color="#a20d11"/>
      <stop offset="0.79" stop-color="#6b0006"/>
    </linearGradient>
    <linearGradient id="linear-gradient-2" x1="1621.89" y1="371.69" x2="1621.89" y2="391.64" gradientTransform="matrix(-1, 0, 0, 1, 1727.34, 0)" gradientUnits="userSpaceOnUse">
      <stop offset="0" stop-color="#ac1a27"/>
      <stop offset="0.08" stop-color="#9e151f"/>
      <stop offset="0.28" stop-color="#7d0a0e"/>
      <stop offset="0.44" stop-color="#680304"/>
      <stop offset="0.56" stop-color="#610000"/>
      <stop offset="0.73" stop-color="#520000"/>
      <stop offset="1" stop-color="#3f0000"/>
    </linearGradient>
    <linearGradient id="linear-gradient-3" x1="-659.47" y1="381.96" x2="-646.67" y2="381.96" gradientTransform="translate(734.8)" gradientUnits="userSpaceOnUse">
      <stop offset="0" stop-color="#bd1349"/>
      <stop offset="0.24" stop-color="#bd124e"/>
      <stop offset="0.25" stop-color="#bd124e"/>
      <stop offset="1" stop-color="#7a0025"/>
    </linearGradient>
    <linearGradient id="linear-gradient-4" x1="-663.87" y1="388.59" x2="-646.61" y2="388.59" gradientTransform="translate(734.8)" gradientUnits="userSpaceOnUse">
      <stop offset="0" stop-color="#282880"/>
      <stop offset="0.27" stop-color="#26257c"/>
      <stop offset="0.56" stop-color="#1f1b6f"/>
      <stop offset="0.85" stop-color="#140b5a"/>
      <stop offset="1" stop-color="#0d004c"/>
    </linearGradient>
    <linearGradient id="linear-gradient-5" x1="-659.79" y1="388.59" x2="-646.67" y2="388.59" xlink:href="#linear-gradient-3"/>
    <linearGradient id="linear-gradient-6" x1="-657.13" y1="381.91" x2="-640.64" y2="381.91" xlink:href="#linear-gradient-4"/>
    <linearGradient id="linear-gradient-7" x1="1634.48" y1="387.93" x2="1634.48" y2="378.49" gradientTransform="matrix(-1, 0, 0, 1, 1727.34, 0)" gradientUnits="userSpaceOnUse">
      <stop offset="0" stop-color="#ec2d24"/>
      <stop offset="0.12" stop-color="#ec2824"/>
      <stop offset="0.25" stop-color="#eb1c24"/>
      <stop offset="1" stop-color="#74020d"/>
    </linearGradient>
    <linearGradient id="_ÂÁ_Ï_ÌÌ_È_ËÂÌÚ_14" data-name="¡ÂÁ˚ÏˇÌÌ˚È „‡‰ËÂÌÚ 14" x1="2915.54" y1="448.18" x2="2971.63" y2="448.18" gradientTransform="translate(-2873.6 14.89) rotate(-2.88)" gradientUnits="userSpaceOnUse">
      <stop offset="0" stop-color="#003a6b"/>
      <stop offset="1" stop-color="#00204c"/>
    </linearGradient>
    <linearGradient id="_ÂÁ_Ï_ÌÌ_È_ËÂÌÚ_18" data-name="¡ÂÁ˚ÏˇÌÌ˚È „‡‰ËÂÌÚ 18" x1="2939.33" y1="291.02" x2="2967.75" y2="338.91" gradientTransform="translate(-2863.05)" gradientUnits="userSpaceOnUse">
      <stop offset="0" stop-color="#cad6e0"/>
      <stop offset="0.05" stop-color="#aec0d0"/>
      <stop offset="0.15" stop-color="#7998b1"/>
      <stop offset="0.25" stop-color="#4e7698"/>
      <stop offset="0.35" stop-color="#2c5c84"/>
      <stop offset="0.44" stop-color="#144976"/>
      <stop offset="0.53" stop-color="#053e6e"/>
      <stop offset="0.6" stop-color="#003a6b"/>
      <stop offset="1" stop-color="#00204c"/>
    </linearGradient>
  </defs>
  <title>robot</title>
  <g class="cls-1">
    <g id="robot">
      <g id="fondo">
        <rect class="cls-2" width="1024" height="620"/>
      </g>
      <g id="sombra">
        <ellipse class="cls-3" cx="84.92" cy="492.31" rx="40.43" ry="9.08"/>
        <ellipse class="cls-4" cx="84.92" cy="492.31" rx="31.49" ry="5.77"/>
        <ellipse class="cls-4" cx="84.92" cy="492.31" rx="18.96" ry="3.48"/>
      </g>
      <g id="brazoIzquierdo">
        <g>
          <path class="cls-5" d="M149.32,399c-7.57-29.43-21.22-39.34-21.22-39.34s-5.87-1.21-11.43,7.94A15.92,15.92,0,0,0,115,380.13s23.36,27.34,29.29,36.26S152.16,410.07,149.32,399Z"/>
          <path class="cls-5" d="M149.32,399c-7.57-29.43-21.22-39.34-21.22-39.34s-5.87-1.21-11.43,7.94A15.92,15.92,0,0,0,115,380.13s23.36,27.34,29.29,36.26S152.16,410.07,149.32,399Z"/>
          <path class="cls-6" d="M147.64,403.77c-5.3-17.38-10.13-25.68-14.87-30.29-8.14-7.9-14.26-6.5-18.11-.5a15.24,15.24,0,0,1,2-5.36c5.56-9.15,11.43-7.94,11.43-7.94s13.65,9.91,21.22,39.34c2,7.64,1.65,17.27-.69,19.56C148.8,417.76,150.8,414.12,147.64,403.77Z"/>
          <path class="cls-5" d="M134.44,402.91a14.83,14.83,0,0,1,2,7.44,17.64,17.64,0,0,1-1.13,4.44,2.61,2.61,0,0,0,2.85-.73c1.41-1.39,1.82-3.82,2.1-4.88S134.44,402.91,134.44,402.91Z"/>
          <path class="cls-7" d="M132.76,381.09a96.39,96.39,0,0,0-6.9-7.77c-1.22-1.16,0-2.34,1.08-1.53,2.42,1.74,5.95,5.91,10.34,11.94,2.57,3.52,9.48,17.74,10.23,27.11C147.28,410.42,143.76,394.75,132.76,381.09Z"/>
          <path class="cls-8" d="M149,396l0,0a.33.33,0,0,0-.44.11c-3,5-9.42,8.74-15.2,5.84a.32.32,0,0,0-.28.57c6.11,3.07,12.82-.84,16-6.08A.31.31,0,0,0,149,396Z"/>
        </g>
        <path class="cls-9" d="M128.66,370.24c.47-8.09-1.94-14.81-5.4-15s-6.64,6.18-7.11,14.27,1.94,14.8,5.4,15S128.19,378.32,128.66,370.24Z"/>
      </g>
      <g id="torso">
        <path class="cls-5" d="M44.16,349.89c-3.91-.25-17.72,13.6-13.56,27s27.68,58.27,33,74,8.52,19.57,16.1,21,19,1.95,32.3-25.77,15.31-58.84,15.91-73.63-.94-20.66-6.11-22.34C109.76,346.21,44.16,349.89,44.16,349.89Z"/>
        <path class="cls-7" d="M106.65,442.86c10.29-29.16,9-60.5,8.1-75.35-.64-9.87-1.8-15.69-4.08-18.82-11-.61-27-.35-40.54.09,7.25,19.14,18,51.38,19.76,84.58,1.19,22.16-1.87,33-6.1,38.53C90.7,470.5,99,464.55,106.65,442.86Z"/>
        <path class="cls-10" d="M123,351.38c0,2.87-20.3,7.33-40.78,7.36s-40.8-4.36-40.81-7.23,20.31-3.13,40.79-3.17S123,348.51,123,351.38Z"/>
        <path class="cls-11" d="M110.58,352c0,2-14,5.08-28.1,5.1s-28.1-3-28.1-5,14-2.17,28.09-2.2S110.57,350,110.58,352Z"/>
        <path class="cls-12" d="M102,353c0,.76-9.64,1.72-19,1.73s-18.4-.91-18.4-1.67,9-1.06,18.39-1.08S102,352.23,102,353Z"/>
        <path class="cls-13" d="M72,454.15C69.86,442.4,66.61,404,58.89,376.86c-3.87-13.6-13-23.19-21.81-20.15-6.26,2.16-8.73,13-6.48,20.22,4.15,13.43,27.68,58.27,33,74s8.52,19.57,16.1,21c3.9.74,8.83,1.22,14.5-2.26C86.53,470.84,75.64,473.61,72,454.15Z"/>
        <path class="cls-14" d="M99.14,459.87a13.8,13.8,0,0,1-4.66.77,21.45,21.45,0,0,1-5.22-.38,2.11,2.11,0,0,1-1.83-1.94h0a1.9,1.9,0,0,1,1.83-1.94s4,.45,5,.44a35.13,35.13,0,0,0,5.07-.48c1,0,1.94.3,1.64,1.74A2.5,2.5,0,0,1,99.14,459.87Z"/>
        <path class="cls-15" d="M98.5,459.66a14.56,14.56,0,0,1-4,.54,22.18,22.18,0,0,1-4.52-.27c-.84-.18-1.57-.62-1.57-1.38h0A1.49,1.49,0,0,1,90,457.17s3.47.32,4.32.31a38.33,38.33,0,0,0,4.38-.34c.87,0,1.68.21,1.42,1.24C100,458.86,99.55,459.33,98.5,459.66Z"/>
        <path class="cls-8" d="M93.35,451c-9.23,0-20.54-2-32.75-7a.32.32,0,0,1-.17-.42.32.32,0,0,1,.42-.18c22.74,9.34,42.31,8.16,50.86,3.1a.33.33,0,0,1,.45.12.32.32,0,0,1-.12.44C108,449.46,101.47,451,93.35,451Z"/>
        <path class="cls-16" d="M93.11,450.28c-9.23,0-20.54-2-32.75-7a.33.33,0,0,1-.17-.43.32.32,0,0,1,.42-.17c22.74,9.34,42.31,8.16,50.86,3.1a.33.33,0,0,1,.45.11.33.33,0,0,1-.12.45C107.74,448.73,101.23,450.28,93.11,450.28Z"/>
        <path class="cls-7" d="M126.2,357.47c1.75,35.54-3.38,52.35-3.38,52.35s4.9-26.85.38-52.8C122.58,353.47,125.93,351.92,126.2,357.47Z"/>
        <path class="cls-16" d="M44.51,355s4,2.43,18.82,3.81,34.24,1.11,34.24,1.11-17.93,2.37-34.31.61S44.51,355,44.51,355Z"/>
        <path class="cls-17" d="M96.64,457.36c-.71.06-1.55.11-2.36.12s-4.32-.31-4.32-.31a1.69,1.69,0,0,0-.33,0l1.59,2.91a31.21,31.21,0,0,0,3.25.09,15.12,15.12,0,0,0,3.76-.47Z"/>
        <g>
          <path class="cls-18" d="M106.8,381.82A12.56,12.56,0,0,0,99,370.19c-.48,0-.94.1-1.4.18a11.57,11.57,0,0,0-9.61,11c0,.12,0,.25,0,.38v.13h0a7.16,7.16,0,0,1,7.16-7.15,7,7,0,0,1,2.34.39c-.71-.25-.68-.26,0,0a7,7,0,0,1,2.42-.42,6.85,6.85,0,0,1,6.83,7.09v.07a6.75,6.75,0,0,1-6.77,7,6.85,6.85,0,0,1-2.2-.35A7.17,7.17,0,0,1,88,382a11.45,11.45,0,0,0,9.54,11.25,11.81,11.81,0,0,0,1.47.18A12.56,12.56,0,0,0,106.8,381.82Z"/>
          <path class="cls-19" d="M102.27,381.91a7.17,7.17,0,0,1-4.5,6.65,6.85,6.85,0,0,0,2.2.35,6.75,6.75,0,0,0,6.77-7v-.07a6.85,6.85,0,0,0-6.83-7.09,7,7,0,0,0-2.42.42c-.72-.27-.75-.26,0,0A7.15,7.15,0,0,1,102.27,381.91Z"/>
          <path class="cls-20" d="M100,370.15c-.34,0-.67,0-1,0a12.55,12.55,0,0,1,0,23.26c.31,0,.63,0,1,0a11.66,11.66,0,0,0,12-11.67v-.06A11.56,11.56,0,0,0,100,370.15Z"/>
          <path class="cls-21" d="M88,381.91v0Z"/>
          <path class="cls-22" d="M97.57,388.49Z"/>
          <path class="cls-23" d="M97.57,388.49Z"/>
          <path class="cls-24" d="M95.11,389.07a7.12,7.12,0,0,0,2.66-.51l-.2-.07h0A7,7,0,0,1,93,381.82v-.06a6.88,6.88,0,0,1,4.53-6.61h0a7,7,0,0,0-2.34-.39A7.16,7.16,0,0,0,88,381.9V382A7.17,7.17,0,0,0,95.11,389.07Z"/>
          <path class="cls-25" d="M95.11,389.07a7.12,7.12,0,0,0,2.66-.51l-.2-.07h0A7,7,0,0,1,93,381.82v-.06a6.88,6.88,0,0,1,4.53-6.61h0a7,7,0,0,0-2.34-.39A7.16,7.16,0,0,0,88,381.9V382A7.17,7.17,0,0,0,95.11,389.07Z"/>
        </g>
      </g>
      <g id="brazoDerecho">
        <path class="cls-26" d="M52.9,377c-1.55-10.08-7.46-17.54-13.18-16.65s-9.1,9.77-7.54,19.85,7.46,17.54,13.18,16.65S54.46,387.11,52.9,377Z"/>
        <path class="cls-27" d="M40.14,362.36c5.16-.41,10,6.83,10.7,16.15s-2.85,17.23-8,17.64-10-6.83-10.71-16.15c-.65-8.16,2-15.24,6.17-17.15A5.34,5.34,0,0,1,40.14,362.36Zm10,16.2c-.71-9-5.2-15.93-10-15.55s-8.13,8-7.42,16.94,5.2,15.93,10,15.55a4.6,4.6,0,0,0,1.66-.44C48.32,393.27,50.82,386.44,50.19,378.56Z"/>
        <g>
          <path class="cls-5" d="M26.39,415.27c-6.23-28,1.47-39.64,5.62-45.06,1.21-1.59,5.76-6.62,10.48-4.21,5.55,2.84,6.47,14.21,6.24,16.18-.9,7.64-7.78,36.71-9,47.24C38.37,440.87,29.05,427.24,26.39,415.27Z"/>
          <path class="cls-6" d="M48.73,382.18c-.15,1.29-.48,3.21-.92,5.54-1.34,6.73-3.85,18.38-5.75,28.19-1.09,5.46-2,10.33-2.35,13.51,0,.17,0,.34-.07.5-1.46-13.22,4.55-37.81,5.13-49.89.16-3.31,1.08-10.51-5.16-14.66a5.69,5.69,0,0,1,2.88.63C48,368.84,49,380.21,48.73,382.18Z"/>
          <path class="cls-7" d="M29,378.22c-8.1,14.12,2.38,46.53,2.38,46.53s-1.67-24.82.36-36.42S31.72,373.39,29,378.22Z"/>
          <path class="cls-6" d="M40.46,423.1a37.32,37.32,0,0,0,1.88,4.52,8.11,8.11,0,0,0,3,1.23c-.69-1.92-3.41-12.35-2.74-15.61C42.86,412.08,39.72,421.28,40.46,423.1Z"/>
          <path class="cls-8" d="M43,413.45a.34.34,0,0,1-.32-.07c-4.48-3.87-11.8-5.52-16.51-1a.33.33,0,0,1-.45-.47c5-4.83,12.69-3.12,17.39.94a.33.33,0,0,1,0,.46A.44.44,0,0,1,43,413.45Z"/>
        </g>
      </g>
      <g id="cabeza">
        <g>
          <path class="cls-5" d="M47.27,339c9.32,12,37.85,9.71,45.8,8.95s21.42-2.14,26.27-16.77,2.42-37-10.92-48.57-49-9.71-61.15,5.93S44,334.8,47.27,339Z"/>
          <path class="cls-16" d="M49.73,291.7c.53-.19,11.55-8.75,31.5-10.46a130.71,130.71,0,0,1,24.44.95c-.68-.72-10.55-6.42-30.9-4.3A40.1,40.1,0,0,0,49.73,291.7Z"/>
          <path class="cls-7" d="M86,288.16c-6.42.1-12.86.56-18.91,2.85l-.14.06c6.29,13.31,6.8,30.65,3.12,43.05a26,26,0,0,1-5.35,10.05c11.1,2,23.52.94,28.35.48,5.26-.5,12.93-1.28,18.92-6a30,30,0,0,0,1.74-4.54c3.73-12.56,3.15-30.19-3.37-43.57A103.77,103.77,0,0,0,86,288.16Z"/>
          <path class="cls-28" d="M62.78,300c3.7-5,13.79-6.35,26.44-7.1,16.31-1,21.83,2,23.49,3.87s4.56,11.25,3.94,20.36-.72,11.84-4.47,14.1-14.56,4.48-21.55,4.65c-13.25.33-19.93-.32-24.36-2.92-2.26-1.33-5.14-8.49-5.59-17.33S60.86,302.58,62.78,300Z"/>
          <path class="cls-29" d="M88.76,294.28c-7.86.45-14.68,1.13-19.48,2.83,4.2,11.65,4.23,25.48,1.11,35.71l-.12.35c4.2,1.21,10.21,1.5,19.84,1.27,6.71-.16,17.09-2.23,20.68-4.35a6.41,6.41,0,0,0,2.82-2.93,61,61,0,0,0-2.08-29,2.45,2.45,0,0,0-.23-.29C109.7,296.13,104.41,293.37,88.76,294.28Z"/>
          <path class="cls-9" d="M54.2,308.34c-.22,5-3,8.84-6.17,8.7s-5.59-4.26-5.37-9.21,3-8.84,6.17-8.7S54.42,303.4,54.2,308.34Z"/>
          <path class="cls-30" d="M51.68,308c-.16,3.47-1.85,6.22-3.78,6.13s-3.37-3-3.22-6.44,1.85-6.22,3.78-6.13S51.83,304.5,51.68,308Z"/>
          <path class="cls-27" d="M51.73,308.23h0a12.18,12.18,0,0,0-1.45-6.58,5.32,5.32,0,0,0-4.24-3c-3.35-.15-6.28,3.89-6.51,9s2.32,9.4,5.69,9.55h.18C48.69,317.25,51.51,313.26,51.73,308.23ZM46,299.33a4.69,4.69,0,0,1,3.7,2.65,11.43,11.43,0,0,1,1.37,6.22c-.21,4.76-2.83,8.51-5.83,8.39s-5.28-4.11-5.07-8.87,2.74-8.39,5.68-8.39Z"/>
          <path class="cls-7" d="M45.61,319.81l2.34.08s1,9.72,3.8,15.43,6.78,7.53,6.78,7.53-6-1.94-9.58-9.34C46.37,328.18,45.61,319.81,45.61,319.81Z"/>
          <path class="cls-31" d="M65,300.72h0a1.23,1.23,0,0,0,1.78.42c1.14-.78,2.87-1.94,3.87-2.48,1.57-.86,9.36-3.73,9.36-3.73a35.8,35.8,0,0,0-14.43,3.76A1.47,1.47,0,0,0,65,300.72Z"/>
        </g>
        <path class="cls-32" d="M58.86,307.2c0,1.54-.72,2.78-1.6,2.78s-1.59-1.24-1.59-2.78.71-2.77,1.59-2.77S58.86,305.67,58.86,307.2Z"/>
      </g>
      <g id="ojos">
        <rect class="cls-33" x="97.6" y="302.24" width="11.25" height="14.7" rx="3.23"/>
        <rect class="cls-33" x="98.78" y="303.82" width="8.89" height="11.54" rx="3.23"/>
        <rect class="cls-34" x="100.27" y="305.3" width="6.17" height="8.98" rx="2"/>
        <path class="cls-35" d="M105.79,308.77h-5.07a.25.25,0,1,1,0-.49h5.07a.25.25,0,0,1,0,.49Z"/>
        <path class="cls-35" d="M105.79,309.84h-5.07a.25.25,0,1,1,0-.49h5.07a.25.25,0,0,1,0,.49Z"/>
        <path class="cls-35" d="M105.79,311h-5.07a.25.25,0,1,1,0-.49h5.07a.25.25,0,0,1,0,.49Z"/>
        <path class="cls-35" d="M105.14,306.71h-3.78a.25.25,0,0,1,0-.49h3.78a.25.25,0,1,1,0,.49Z"/>
        <path class="cls-35" d="M105.79,307.82h-5.07a.25.25,0,1,1,0-.49h5.07a.25.25,0,0,1,0,.49Z"/>
        <path class="cls-35" d="M105.79,312.27h-5.07a.25.25,0,1,1,0-.49h5.07a.25.25,0,0,1,0,.49Z"/>
        <path class="cls-35" d="M105.79,313.34h-5.07a.25.25,0,1,1,0-.49h5.07a.25.25,0,0,1,0,.49Z"/>
        <g>
          <rect class="cls-33" x="79.67" y="302.24" width="11.25" height="14.7" rx="3.23"/>
          <rect class="cls-33" x="80.85" y="303.82" width="8.89" height="11.54" rx="3.23"/>
          <path class="cls-34" d="M84.35,305.3h2.16a2,2,0,0,1,2,2v5a2,2,0,0,1-2,2H84.35a2,2,0,0,1-2-2v-5A2,2,0,0,1,84.35,305.3Z"/>
          <path class="cls-35" d="M87.86,308.77H82.79a.25.25,0,1,1,0-.49h5.07a.25.25,0,0,1,0,.49Z"/>
          <path class="cls-35" d="M87.86,309.84H82.79a.25.25,0,1,1,0-.49h5.07a.25.25,0,0,1,0,.49Z"/>
          <path class="cls-35" d="M87.86,311H82.79a.25.25,0,1,1,0-.49h5.07a.25.25,0,0,1,0,.49Z"/>
          <path class="cls-35" d="M87.21,306.71H83.43a.25.25,0,0,1,0-.49h3.78a.25.25,0,1,1,0,.49Z"/>
          <path class="cls-35" d="M87.86,307.82H82.79a.25.25,0,1,1,0-.49h5.07a.25.25,0,0,1,0,.49Z"/>
          <path class="cls-35" d="M87.86,312.27H82.79a.25.25,0,1,1,0-.49h5.07a.25.25,0,0,1,0,.49Z"/>
          <path class="cls-35" d="M87.86,313.34H82.79a.25.25,0,1,1,0-.49h5.07a.25.25,0,0,1,0,.49Z"/>
        </g>
      </g>
      <path id="boca" class="cls-36" d="M87.64,324.48c5.08.65,14.18,1.15,14.18,1.15s-8,.82-13.31-.09S82.18,323.78,87.64,324.48Z"/>
    </g>
  </g>
</svg>
